<mxfile host="app.diagrams.net" modified="2021-07-08T23:00:00.505Z" agent="5.0 (Windows NT 10.0; Win64; x64) AppleWebKit/537.36 (KHTML, like Gecko) Chrome/91.0.4472.124 Safari/537.36" etag="aWCOpmIwxpkj4M3x-pAE" version="14.8.3" type="github">
  <diagram id="kgpKYQtTHZ0yAKxKKP6v" name="Page-1">
    <mxGraphModel dx="1662" dy="762" grid="1" gridSize="10" guides="1" tooltips="1" connect="1" arrows="1" fold="1" page="1" pageScale="1" pageWidth="850" pageHeight="1100" math="0" shadow="0">
      <root>
        <mxCell id="0" />
        <mxCell id="1" parent="0" />
        <mxCell id="MqtjfmyJPXOOkYKETkic-1" value="Browser" style="shape=umlLifeline;perimeter=lifelinePerimeter;container=1;collapsible=0;recursiveResize=0;rounded=0;shadow=0;strokeWidth=1;" parent="1" vertex="1">
          <mxGeometry x="120" y="120" width="100" height="450" as="geometry" />
        </mxCell>
        <mxCell id="MqtjfmyJPXOOkYKETkic-4" value="API Docs App" style="shape=umlLifeline;perimeter=lifelinePerimeter;container=1;collapsible=0;recursiveResize=0;rounded=0;shadow=0;strokeWidth=1;" parent="1" vertex="1">
          <mxGeometry x="400" y="120" width="100" height="450" as="geometry" />
        </mxCell>
        <mxCell id="MqtjfmyJPXOOkYKETkic-5" value="&lt;font size=&quot;3&quot;&gt;Authenticated Store Flow&lt;/font&gt;" style="text;html=1;strokeColor=none;fillColor=none;align=center;verticalAlign=middle;whiteSpace=wrap;rounded=0;" parent="1" vertex="1">
          <mxGeometry x="280" y="40" width="250" height="20" as="geometry" />
        </mxCell>
        <mxCell id="MqtjfmyJPXOOkYKETkic-6" value="" style="shape=cylinder3;whiteSpace=wrap;html=1;boundedLbl=1;backgroundOutline=1;size=15;" parent="1" vertex="1">
          <mxGeometry x="670" y="170" width="60" height="280" as="geometry" />
        </mxCell>
        <mxCell id="MqtjfmyJPXOOkYKETkic-7" value="DB" style="text;html=1;strokeColor=none;fillColor=none;align=center;verticalAlign=middle;whiteSpace=wrap;rounded=0;" parent="1" vertex="1">
          <mxGeometry x="680" y="290" width="40" height="20" as="geometry" />
        </mxCell>
        <mxCell id="MqtjfmyJPXOOkYKETkic-8" value="" style="rounded=0;whiteSpace=wrap;html=1;" parent="1" vertex="1">
          <mxGeometry x="445" y="200" width="10" height="330" as="geometry" />
        </mxCell>
        <mxCell id="MqtjfmyJPXOOkYKETkic-9" value="" style="endArrow=classic;html=1;" parent="1" edge="1">
          <mxGeometry relative="1" as="geometry">
            <mxPoint x="455" y="269" as="sourcePoint" />
            <mxPoint x="670" y="267" as="targetPoint" />
          </mxGeometry>
        </mxCell>
        <mxCell id="MqtjfmyJPXOOkYKETkic-10" value="select store specific&amp;nbsp;&lt;br&gt;version of json" style="edgeLabel;resizable=0;html=1;align=center;verticalAlign=middle;" parent="MqtjfmyJPXOOkYKETkic-9" connectable="0" vertex="1">
          <mxGeometry relative="1" as="geometry" />
        </mxCell>
        <mxCell id="MqtjfmyJPXOOkYKETkic-11" value="" style="endArrow=classic;html=1;" parent="1" edge="1">
          <mxGeometry relative="1" as="geometry">
            <mxPoint x="670" y="285.5" as="sourcePoint" />
            <mxPoint x="459" y="286" as="targetPoint" />
          </mxGeometry>
        </mxCell>
        <mxCell id="MqtjfmyJPXOOkYKETkic-14" value="" style="endArrow=classic;html=1;exitX=0.49;exitY=0.927;exitDx=0;exitDy=0;exitPerimeter=0;entryX=0.51;entryY=0.931;entryDx=0;entryDy=0;entryPerimeter=0;" parent="1" source="MqtjfmyJPXOOkYKETkic-4" target="MqtjfmyJPXOOkYKETkic-1" edge="1">
          <mxGeometry relative="1" as="geometry">
            <mxPoint x="445" y="510" as="sourcePoint" />
            <mxPoint x="174.5" y="510" as="targetPoint" />
          </mxGeometry>
        </mxCell>
        <mxCell id="MqtjfmyJPXOOkYKETkic-15" value="Vue app" style="edgeLabel;resizable=0;html=1;align=center;verticalAlign=middle;" parent="MqtjfmyJPXOOkYKETkic-14" connectable="0" vertex="1">
          <mxGeometry relative="1" as="geometry" />
        </mxCell>
        <mxCell id="MqtjfmyJPXOOkYKETkic-16" value="&lt;font style=&quot;font-size: 10px&quot;&gt;set json data&lt;/font&gt;" style="text;html=1;strokeColor=none;fillColor=none;align=center;verticalAlign=middle;whiteSpace=wrap;rounded=0;" parent="1" vertex="1">
          <mxGeometry x="482.5" y="480" width="40" height="20" as="geometry" />
        </mxCell>
        <mxCell id="MqtjfmyJPXOOkYKETkic-17" value="" style="rounded=0;whiteSpace=wrap;html=1;" parent="1" vertex="1">
          <mxGeometry x="165" y="550" width="10" height="40" as="geometry" />
        </mxCell>
        <mxCell id="MqtjfmyJPXOOkYKETkic-18" value="&lt;font style=&quot;font-size: 10px&quot;&gt;hydrate template with json data&lt;/font&gt;" style="text;html=1;strokeColor=none;fillColor=none;align=center;verticalAlign=middle;whiteSpace=wrap;rounded=0;" parent="1" vertex="1">
          <mxGeometry x="175" y="560" width="75" height="20" as="geometry" />
        </mxCell>
        <mxCell id="MqtjfmyJPXOOkYKETkic-20" value="" style="endArrow=classic;html=1;" parent="1" edge="1">
          <mxGeometry relative="1" as="geometry">
            <mxPoint x="170" y="183" as="sourcePoint" />
            <mxPoint x="447" y="183" as="targetPoint" />
          </mxGeometry>
        </mxCell>
        <mxCell id="MqtjfmyJPXOOkYKETkic-21" value="get /&amp;nbsp;" style="edgeLabel;resizable=0;html=1;align=center;verticalAlign=middle;" parent="MqtjfmyJPXOOkYKETkic-20" connectable="0" vertex="1">
          <mxGeometry relative="1" as="geometry" />
        </mxCell>
        <mxCell id="MqtjfmyJPXOOkYKETkic-22" value="session: userId&lt;br&gt;session: language" style="edgeLabel;resizable=0;html=1;align=left;verticalAlign=bottom;" parent="MqtjfmyJPXOOkYKETkic-20" connectable="0" vertex="1">
          <mxGeometry x="-1" relative="1" as="geometry">
            <mxPoint x="100" y="37" as="offset" />
          </mxGeometry>
        </mxCell>
        <mxCell id="MqtjfmyJPXOOkYKETkic-27" value="" style="endArrow=classic;html=1;entryX=-0.067;entryY=0.111;entryDx=0;entryDy=0;entryPerimeter=0;" parent="1" edge="1">
          <mxGeometry relative="1" as="geometry">
            <mxPoint x="460" y="213" as="sourcePoint" />
            <mxPoint x="665.98" y="213.08000000000004" as="targetPoint" />
          </mxGeometry>
        </mxCell>
        <mxCell id="MqtjfmyJPXOOkYKETkic-28" value="select authenticated store" style="edgeLabel;resizable=0;html=1;align=center;verticalAlign=middle;" parent="MqtjfmyJPXOOkYKETkic-27" connectable="0" vertex="1">
          <mxGeometry relative="1" as="geometry" />
        </mxCell>
        <mxCell id="MqtjfmyJPXOOkYKETkic-32" value="&lt;font style=&quot;font-size: 10px&quot;&gt;update json data with store specific info&lt;/font&gt;" style="text;html=1;strokeColor=none;fillColor=none;align=center;verticalAlign=middle;whiteSpace=wrap;rounded=0;" parent="1" vertex="1">
          <mxGeometry x="460" y="420" width="85" height="20" as="geometry" />
        </mxCell>
        <mxCell id="YJcLRK19LecvTJQLK1tD-10" value="" style="endArrow=classic;html=1;exitX=-0.017;exitY=0.218;exitDx=0;exitDy=0;exitPerimeter=0;" parent="1" edge="1">
          <mxGeometry width="50" height="50" relative="1" as="geometry">
            <mxPoint x="668.98" y="229.03999999999996" as="sourcePoint" />
            <mxPoint x="460" y="229" as="targetPoint" />
          </mxGeometry>
        </mxCell>
        <mxCell id="YJcLRK19LecvTJQLK1tD-11" value="" style="endArrow=classic;html=1;entryX=0;entryY=0.5;entryDx=0;entryDy=0;entryPerimeter=0;" parent="1" target="MqtjfmyJPXOOkYKETkic-6" edge="1">
          <mxGeometry relative="1" as="geometry">
            <mxPoint x="455" y="310" as="sourcePoint" />
            <mxPoint x="665" y="310.03" as="targetPoint" />
          </mxGeometry>
        </mxCell>
        <mxCell id="YJcLRK19LecvTJQLK1tD-12" value="get data for chosen request&amp;nbsp;&lt;br&gt;language" style="edgeLabel;resizable=0;html=1;align=center;verticalAlign=middle;" parent="YJcLRK19LecvTJQLK1tD-11" connectable="0" vertex="1">
          <mxGeometry relative="1" as="geometry" />
        </mxCell>
        <mxCell id="YJcLRK19LecvTJQLK1tD-13" value="" style="endArrow=classic;html=1;" parent="1" edge="1">
          <mxGeometry width="50" height="50" relative="1" as="geometry">
            <mxPoint x="670" y="330" as="sourcePoint" />
            <mxPoint x="455" y="330" as="targetPoint" />
          </mxGeometry>
        </mxCell>
        <mxCell id="YJcLRK19LecvTJQLK1tD-14" value="&lt;span style=&quot;font-size: 10px&quot;&gt;update request sections with data for chosen langage&lt;br&gt;&lt;/span&gt;" style="text;html=1;strokeColor=none;fillColor=none;align=center;verticalAlign=middle;whiteSpace=wrap;rounded=0;" parent="1" vertex="1">
          <mxGeometry x="455" y="355" width="95" height="20" as="geometry" />
        </mxCell>
      </root>
    </mxGraphModel>
  </diagram>
</mxfile>
